<svg id="Camada_1" data-name="Camada 1" xmlns="http://www.w3.org/2000/svg" xmlns:xlink="http://www.w3.org/1999/xlink" viewBox="0 0 492.31 482.13"><defs><style>.cls-1,.cls-17,.cls-21,.cls-22,.cls-7{fill:none;}.cls-2,.cls-8{fill:#407bff;}.cls-10,.cls-11,.cls-14,.cls-16,.cls-18,.cls-19,.cls-20,.cls-23,.cls-24,.cls-3,.cls-4{fill:#fff;}.cls-3{opacity:0.7;}.cls-13,.cls-14,.cls-16,.cls-3,.cls-6{isolation:isolate;}.cls-5{clip-path:url(#clip-path);}.cls-6{opacity:0.2;}.cls-17,.cls-7{stroke:#263238;}.cls-10,.cls-21,.cls-7,.cls-8{stroke-miterlimit:10;}.cls-10,.cls-11,.cls-18,.cls-19,.cls-20,.cls-21,.cls-22,.cls-23,.cls-24,.cls-8{stroke:#fff;}.cls-8{stroke-width:3px;}.cls-9{fill:#263238;}.cls-10,.cls-21{stroke-width:0.5px;}.cls-11{stroke-miterlimit:10;stroke-width:0.5px;}.cls-12{clip-path:url(#clip-path-2);}.cls-13{opacity:0.18;}.cls-14{opacity:0.86;}.cls-15{clip-path:url(#clip-path-3);}.cls-16{opacity:0.65;}.cls-17{stroke-miterlimit:10;}.cls-18{stroke-miterlimit:10;stroke-width:0.5px;}.cls-19{stroke-miterlimit:10;stroke-width:0.5px;}.cls-20{stroke-miterlimit:10;stroke-width:0.5px;}.cls-22{stroke-miterlimit:10;stroke-width:0.5px;}.cls-23{stroke-miterlimit:10;stroke-width:0.5px;}.cls-24{stroke-miterlimit:10;stroke-width:0.5px;}</style><clipPath id="clip-path" transform="translate(-3.6 -13.37)"><path class="cls-1" d="M441.12,385.81l.1-11.34L300.13,340.18,54.44,422.39V434.2a2.39,2.39,0,0,0,.54,1.56,3.59,3.59,0,0,0,1.62,1.09l138.12,57a15.22,15.22,0,0,0,3.51.9,24.3,24.3,0,0,0,8.07-.21,16.13,16.13,0,0,0,3.54-1.09L439.48,388.57a2.23,2.23,0,0,0,1.16-.91A2.72,2.72,0,0,0,441.12,385.81Z"/></clipPath><clipPath id="clip-path-2" transform="translate(-3.6 -13.37)"><circle class="cls-1" cx="247.84" cy="173.81" r="150.25" transform="translate(-50.31 226.15) rotate(-45)"/></clipPath><clipPath id="clip-path-3" transform="translate(-3.6 -13.37)"><path class="cls-1" d="M242.43,104.25l14.27,6.42,3.91,6.42,6.43,2.5.71,6.77-2.49,3.93-5,1.06-10.7-4.28v-1.39l6.05-2.48-2.14-7.5-9.68-3.56-4.27-5.7ZM332.3,269l-11.41-4.63-13.95-5H295.88l-10.3-2.14-11.42,2.5-6.41.34h-3.93l-7.48,4.29-7.13,2.85-9.68-6.06,2.49-10-6.06-2.5h-7.13l-1.07-3.21.71-6.42L226,235.48l-5,.7-1.39,3.57-6,.36-5.35-6.39L206,225.14l5.35-10,10.35.71,2.84,2.5h4.29l5.35-3.21,4.63,1.39,6.42,11.06,2.5-.35L247,219l-2.13-4.27.71-6.78,13.19-5.71,1.78-13.19,5.71-4.63,4.63-8.2,3.57-.72,8.2-5.35.36-2.85-5.71.36-1.07-2.86h-3.88l-6.06,1.38,2.85-4.63L281.61,158l2.85-3.2,5,7.84,3.22,3.22,5-1.39-2.15-4.63L288,154.51l-8.56-9.68-8.92-6.07L262,137.38l-4.27-4.27L252,131.73l-.7,1.38-.72,10.34L252,147l-3.1,11.43-7.13-5.71,1.08-5-7.5-3.57-3.2-3.91,1.78-8.92,10.34-7.49.72-8.56-3.93.36-2.5-3.21-1.06-5.35-2.51-.36-1.38,5.71-3.91.72-1.78-12.44L225,99l-5-2.15-5.72,2.81,7.12,6.79,1.38,6L210,102.78l-8.92-9.68-.7-9.68-9.28-2.85-7.19,4.78a53.71,53.71,0,0,1-5.35,2.85A58.73,58.73,0,0,1,170,89.59l-1.38,6.06-8.2.36.72,3.92,13.19,2.14,6.77,7.49V122l-3.92,11.06.72,11.76-10,17.48-2.14,26,3.21,15,4.63,11.4,5.35.72-1.78-5.71-2.85-4.28-1.78-7.84,3.2-.72,5,12.84,3.58,11.55v9.28l6.77,8.19,12.17,8.8,18.54,5,5.71,5.35,4.27,5.7,6.42,3.92,7.85,2.15,7.84-.36s-.36,3.56-.36,5.35-5,7.84-5,7.84l-3.91,7.13,2.84,7.84,7.84,3.22,11.06,11.41,5,2.14v5.34l.62,2.5a149.67,149.67,0,0,0,74.78-35.22l.2-2.58,9.67-17.48-4.63-3.2Zm37.1-140.84-3.93-6.78-5-7.85-1.38-10.69,6.41,1.07.36-3.57-4.65-.36,3.93-1.79,4.29-2.48V92.13l-4.29-5.71-.91-7.67A150.39,150.39,0,0,0,187.85,36l8.22,5.82-5,6.43-6.77,1.38-.72,9.68-2.85,1.06-3.57,3.93.36,6.42,6.06.72-2.46,6h6.05L197.52,64.3l1.08-5.7,10-.72,2.49-4.28,10.35-1.07,1.07-6.05,7.48-.36s5.35-2.85,6.43-2.85A42.48,42.48,0,0,1,242.46,45l5.35,4.28h7.48l6.43-3.92,8.2.72a8.87,8.87,0,0,0,3.92,1.38c1.79,0,7.12-2.5,7.12-2.5l10.35,6.43,4.28,3.2V60l5.35.71,1.79-3.21,4.63,2.14L307,62.47l-10.7,2.86,6.07,7.84,12.83,7.14,5.35,7.13,7.85.71,1.78-3.57,2.85-.71-9.27-7.13L318,76.1l4.64-1.38-4.29-6,6.07-.36,7.84,4.27L334,81.14,338,85.78l3.21,10.34,7.84,5.7v11.77l8.21,5.35-.36,3.92-1.08,4.64,2.14,6.41.72,3.22,6.06,1.07,2.86-6.07ZM374,92.2v2l-1.79,5.7,1.07,5,3.92,1.38v6.78L373,111.31l-1,19.32-4.28,7.86,2.85,10,4.63,4.27V172l4.64,15,5,11.42,8.2,2.13,2.85-7.14,1.16-.9a151.35,151.35,0,0,0,1.16-18.68A149.41,149.41,0,0,0,374,92.23Zm-82.39-2.27L268.13,79.59,257.79,80l-2.5,6.77L251,82.09l-7.84,1.78-.72,11.77,6.41,4.63,4.64-6.77,5.35,5.35,11.06,9.68,2.14,10.34,9.26,11.76,15-2.48L296,122.8l-3.21-6.07L292,102.47l3.57-6.07Zm19.26,7.85-5.35-1.38-4.63,3.93,2.48,10.34h4.65Zm33.18,6.78-12.14-6.33L329.44,94,326.59,95l2.49,7.13,2.14,9.28,5.35,2.13,1.07-1.38-3.21-5.35,9.28,3.56ZM240,233.28l-1.39,1.38,10.7,3.21,4.28,5,6.79.72,2.48-3.93-8.19-1.38Zm31.8,6.77-7.5,2.15,1.08,2.85h9.26l1.79-2.85-3.21.36Z"/></clipPath></defs><g id="freepik--background-simple--inject-2"><path class="cls-2" d="M493.32,263.43c5.68-37.33,1.62-75.76-8.3-112-8.9-32.5-20.13-65.88-46.26-88.71C407.1,35.08,367.57,31.47,327.45,36.16,248,45.41,225.37,11.4,166.62,13.46S56.35,40.25,39.85,90.76s9.28,103.07-3.1,133S-10.65,283.5,10,326.78s66,77.31,171.17,85.55S378,424.7,437.77,370.07C470.09,340.47,487.26,303.17,493.32,263.43Z" transform="translate(-3.6 -13.37)"/><path class="cls-3" d="M493.32,263.43c5.68-37.33,1.62-75.76-8.3-112-8.9-32.5-20.13-65.88-46.26-88.71C407.1,35.08,367.57,31.47,327.45,36.16,248,45.41,225.37,11.4,166.62,13.46S56.35,40.25,39.85,90.76s9.28,103.07-3.1,133S-10.65,283.5,10,326.78s66,77.31,171.17,85.55S378,424.7,437.77,370.07C470.09,340.47,487.26,303.17,493.32,263.43Z" transform="translate(-3.6 -13.37)"/></g><g id="freepik--Device--inject-2"><path class="cls-4" d="M441.12,385.81l.1-11.34L300.13,340.18,54.44,422.39V434.2a2.39,2.39,0,0,0,.54,1.56,3.59,3.59,0,0,0,1.62,1.09l138.12,57a15.22,15.22,0,0,0,3.51.9,24.3,24.3,0,0,0,8.07-.21,16.13,16.13,0,0,0,3.54-1.09L439.48,388.57a2.23,2.23,0,0,0,1.16-.91A2.72,2.72,0,0,0,441.12,385.81Z" transform="translate(-3.6 -13.37)"/><g class="cls-5"><path class="cls-6" d="M440.64,387.69a2.81,2.81,0,0,0,.49-1.84l.09-11.34L300.13,340.18,205.06,372V494.7a6.52,6.52,0,0,0,1.24-.19,16.13,16.13,0,0,0,3.54-1.09L439.48,388.57A2.31,2.31,0,0,0,440.64,387.69Z" transform="translate(-3.6 -13.37)"/><path class="cls-6" d="M201.26,495.21v-19h-4.81v18.45A15.3,15.3,0,0,0,201.26,495.21Z" transform="translate(-3.6 -13.37)"/></g><path class="cls-7" d="M441.12,385.81l.1-11.34L300.13,340.18,54.44,422.39V434.2a2.39,2.39,0,0,0,.54,1.56,3.59,3.59,0,0,0,1.62,1.09l138.12,57a15.22,15.22,0,0,0,3.51.9,24.3,24.3,0,0,0,8.07-.21,16.13,16.13,0,0,0,3.54-1.09L439.48,388.57a2.23,2.23,0,0,0,1.16-.91A2.72,2.72,0,0,0,441.12,385.81Z" transform="translate(-3.6 -13.37)"/><path class="cls-4" d="M368.94,360.38l-18.07-4.57a4.54,4.54,0,0,0-.82-.14h-.88a7.53,7.53,0,0,0-.83.07,4,4,0,0,0-.68.16.94.94,0,0,0-.4.25.3.3,0,0,0,0,.26.69.69,0,0,0,.29.27,2.61,2.61,0,0,0,.61.22l18.07,4.62a8.13,8.13,0,0,0,.84.13h.9a7.71,7.71,0,0,0,.84-.08,3.08,3.08,0,0,0,.68-.17,1,1,0,0,0,.39-.24.28.28,0,0,0,0-.28.73.73,0,0,0-.3-.28,3.35,3.35,0,0,0-.63-.22" transform="translate(-3.6 -13.37)"/><path class="cls-8" d="M421.88,376l-30.49-7.77h-6.62a11.75,11.75,0,0,1-1.59-.14l-1.53-.22c-.5-.08-1-.19-1.39-.3L327.1,353.91l-1.08-.33c-.33-.12-.62-.25-.88-.37a4.69,4.69,0,0,1-.67-.42,2.1,2.1,0,0,1-.41-.43L323,350.81l-27.3-6.91L87.86,415.53,219,465.76,421.88,376" transform="translate(-3.6 -13.37)"/><path class="cls-9" d="M441.62,373.54a3.35,3.35,0,0,0-1.27-1,10.51,10.51,0,0,0-2.36-.83L304.86,338.56a18.32,18.32,0,0,0-2.55-.42,25.46,25.46,0,0,0-2.76-.1,20.18,20.18,0,0,0-2.69.21,12.52,12.52,0,0,0-2.26.51l-237,80.38a10.27,10.27,0,0,0-2.48,1.18,2.94,2.94,0,0,0-1.19,1.3,1.27,1.27,0,0,0,.17,1.27,3.65,3.65,0,0,0,1.6,1.11l139,56.28a14.75,14.75,0,0,0,3.51.91,24.09,24.09,0,0,0,8.08-.2,16.32,16.32,0,0,0,3.54-1.1L440.57,375.42a2.44,2.44,0,0,0,1.18-.92A1,1,0,0,0,441.62,373.54ZM219,465.76,87.86,415.53l207.83-71.74L323,350.7l1.07,1.55a1.68,1.68,0,0,0,.41.43,5.67,5.67,0,0,0,.66.42l.89.37,1.08.33,53.13,13.7c.44.11.91.22,1.38.31s1,.16,1.54.22,1.05.11,1.59.14,1.08,0,1.63,0h5l30.49,7.77ZM347.25,356.11a.88.88,0,0,1,.4-.25,5.06,5.06,0,0,1,.67-.17,7.91,7.91,0,0,1,.83-.06H350a4.41,4.41,0,0,1,.81.13l18.08,4.58a3.52,3.52,0,0,1,.62.22.73.73,0,0,1,.3.28.26.26,0,0,1,0,.27.9.9,0,0,1-.39.25,3,3,0,0,1-.67.17,7.89,7.89,0,0,1-.85.08h-.89a6,6,0,0,1-.85-.14l-18.07-4.61a2.61,2.61,0,0,1-.61-.22.69.69,0,0,1-.29-.27.3.3,0,0,1,0-.26Zm-201.14,87.3A4.12,4.12,0,0,1,145,444a9.29,9.29,0,0,1-1.57.41,9.94,9.94,0,0,1-1.72.18,10.58,10.58,0,0,1-1.69-.08,6.52,6.52,0,0,1-1.38-.36,2.42,2.42,0,0,1-.9-.57.78.78,0,0,1-.22-.65,1.13,1.13,0,0,1,.45-.66,3.5,3.5,0,0,1,1.08-.61,8.57,8.57,0,0,1,1.56-.42,12.36,12.36,0,0,1,1.72-.16,10.33,10.33,0,0,1,1.67.08,6.5,6.5,0,0,1,1.38.35,2.26,2.26,0,0,1,.9.55.76.76,0,0,1,.24.65A1.19,1.19,0,0,1,146.11,443.41Z" transform="translate(-3.6 -13.37)"/><path class="cls-4" d="M145.4,441.53a6.65,6.65,0,0,0-1.38-.35,10.51,10.51,0,0,0-1.68-.08,12.36,12.36,0,0,0-1.71.16,8.36,8.36,0,0,0-1.56.42,3.39,3.39,0,0,0-1.08.61,1.15,1.15,0,0,0-.46.66.85.85,0,0,0,.22.65,2.6,2.6,0,0,0,.9.57,6.61,6.61,0,0,0,1.39.36,10.45,10.45,0,0,0,1.68.08,10.05,10.05,0,0,0,1.73-.18A9.18,9.18,0,0,0,145,444a4,4,0,0,0,1.08-.61,1.18,1.18,0,0,0,.43-.68.76.76,0,0,0-.24-.65,2.29,2.29,0,0,0-.89-.55" transform="translate(-3.6 -13.37)"/></g><g id="freepik--Lines--inject-2"><line class="cls-7" x1="95.66" y1="368.21" x2="99.62" y2="374.9"/><line class="cls-7" x1="37.56" y1="269.95" x2="91.2" y2="360.65"/><line class="cls-7" x1="141.02" y1="348.82" x2="143.28" y2="354.22"/><line class="cls-7" x1="125.66" y1="312.07" x2="138.51" y2="342.8"/><line class="cls-7" x1="393.38" y1="264.86" x2="365.12" y2="334.29"/><line class="cls-7" x1="400.36" y1="247.73" x2="396.86" y2="256.29"/><line class="cls-7" x1="416.04" y1="332.87" x2="409.87" y2="339.66"/><line class="cls-7" x1="455.83" y1="289.1" x2="422.2" y2="326.08"/><line class="cls-7" x1="116.47" y1="358.05" x2="139.45" y2="402.47"/><line class="cls-7" x1="398.38" y1="330.46" x2="373.09" y2="364.93"/><line class="cls-7" x1="236.74" y1="330.46" x2="242.87" y2="361.1"/></g><g id="freepik--earth-globe--inject-2"><circle class="cls-10" cx="125.65" cy="39.05" r="15.04"/><path class="cls-2" d="M134.24,51.4h-9.8A3.47,3.47,0,0,0,121,54.87v8.29A13.48,13.48,0,0,0,137.71,63v-8.1a3.47,3.47,0,0,0-3.4-3.54Z" transform="translate(-3.6 -13.37)"/><circle class="cls-2" cx="125.57" cy="31.53" r="4.99"/><circle class="cls-11" cx="154.02" cy="307.57" r="15.04"/><path class="cls-2" d="M162.61,319.93H152.8a3.45,3.45,0,0,0-3.46,3.45v8.23a13.49,13.49,0,0,0,16.73-.12v-8.11a3.45,3.45,0,0,0-3.46-3.45Z" transform="translate(-3.6 -13.37)"/><path class="cls-2" d="M157.54,318.41a5,5,0,1,0-5-5h0A5,5,0,0,0,157.54,318.41Z" transform="translate(-3.6 -13.37)"/><circle class="cls-4" cx="247.84" cy="173.81" r="150.25" transform="translate(-53.91 212.78) rotate(-45)"/><g class="cls-12"><circle class="cls-13" cx="247.84" cy="173.81" r="150.25" transform="translate(-53.91 212.78) rotate(-45)"/><path class="cls-14" d="M247.84,238a150.29,150.29,0,0,1-144-107.22,150.25,150.25,0,1,0,288,0A150.3,150.3,0,0,1,247.84,238Z" transform="translate(-3.6 -13.37)"/><path class="cls-2" d="M242.43,104.25l14.27,6.42,3.91,6.42,6.43,2.5.71,6.77-2.49,3.93-5,1.06-10.7-4.28v-1.39l6.05-2.48-2.14-7.5-9.68-3.56-4.27-5.7ZM332.3,269l-11.41-4.63-13.95-5H295.88l-10.3-2.14-11.42,2.5-6.41.34h-3.93l-7.48,4.29-7.13,2.85-9.68-6.06,2.49-10-6.06-2.5h-7.13l-1.07-3.21.71-6.42L226,235.48l-5,.7-1.39,3.57-6,.36-5.35-6.39L206,225.14l5.35-10,10.35.71,2.84,2.5h4.29l5.35-3.21,4.63,1.39,6.42,11.06,2.5-.35L247,219l-2.13-4.27.71-6.78,13.19-5.71,1.78-13.19,5.71-4.63,4.63-8.2,3.57-.72,8.2-5.35.36-2.85-5.71.36-1.07-2.86h-3.88l-6.06,1.38,2.85-4.63L281.61,158l2.85-3.2,5,7.84,3.22,3.22,5-1.39-2.15-4.63L288,154.51l-8.56-9.68-8.92-6.07L262,137.38l-4.27-4.27L252,131.73l-.7,1.38-.72,10.34L252,147l-3.1,11.43-7.13-5.71,1.08-5-7.5-3.57-3.2-3.91,1.78-8.92,10.34-7.49.72-8.56-3.93.36-2.5-3.21-1.06-5.35-2.51-.36-1.38,5.71-3.91.72-1.78-12.44L225,99l-5-2.15-5.72,2.81,7.12,6.79,1.38,6L210,102.78l-8.92-9.68-.7-9.68-9.28-2.85-7.19,4.78a53.71,53.71,0,0,1-5.35,2.85A58.73,58.73,0,0,1,170,89.59l-1.38,6.06-8.2.36.72,3.92,13.19,2.14,6.77,7.49V122l-3.92,11.06.72,11.76-10,17.48-2.14,26,3.21,15,4.63,11.4,5.35.72-1.78-5.71-2.85-4.28-1.78-7.84,3.2-.72,5,12.84,3.58,11.55v9.28l6.77,8.19,12.17,8.8,18.54,5,5.71,5.35,4.27,5.7,6.42,3.92,7.85,2.15,7.84-.36s-.36,3.56-.36,5.35-5,7.84-5,7.84l-3.91,7.13,2.84,7.84,7.84,3.22,11.06,11.41,5,2.14v5.34l.62,2.5a149.67,149.67,0,0,0,74.78-35.22l.2-2.58,9.67-17.48-4.63-3.2Zm37.1-140.84-3.93-6.78-5-7.85-1.38-10.69,6.41,1.07.36-3.57-4.65-.36,3.93-1.79,4.29-2.48V92.13l-4.29-5.71-.91-7.67A150.39,150.39,0,0,0,187.85,36l8.22,5.82-5,6.43-6.77,1.38-.72,9.68-2.85,1.06-3.57,3.93.36,6.42,6.06.72-2.46,6h6.05L197.52,64.3l1.08-5.7,10-.72,2.49-4.28,10.35-1.07,1.07-6.05,7.48-.36s5.35-2.85,6.43-2.85A42.48,42.48,0,0,1,242.46,45l5.35,4.28h7.48l6.43-3.92,8.2.72a8.87,8.87,0,0,0,3.92,1.38c1.79,0,7.12-2.5,7.12-2.5l10.35,6.43,4.28,3.2V60l5.35.71,1.79-3.21,4.63,2.14L307,62.47l-10.7,2.86,6.07,7.84,12.83,7.14,5.35,7.13,7.85.71,1.78-3.57,2.85-.71-9.27-7.13L318,76.1l4.64-1.38-4.29-6,6.07-.36,7.84,4.27L334,81.14,338,85.78l3.21,10.34,7.84,5.7v11.77l8.21,5.35-.36,3.92-1.08,4.64,2.14,6.41.72,3.22,6.06,1.07,2.86-6.07ZM374,92.2v2l-1.79,5.7,1.07,5,3.92,1.38v6.78L373,111.31l-1,19.32-4.28,7.86,2.85,10,4.63,4.27V172l4.64,15,5,11.42,8.2,2.13,2.85-7.14,1.16-.9a151.35,151.35,0,0,0,1.16-18.68A149.41,149.41,0,0,0,374,92.23Zm-82.39-2.27L268.13,79.59,257.79,80l-2.5,6.77L251,82.09l-7.84,1.78-.72,11.77,6.41,4.63,4.64-6.77,5.35,5.35,11.06,9.68,2.14,10.34,9.26,11.76,15-2.48L296,122.8l-3.21-6.07L292,102.47l3.57-6.07Zm19.26,7.85-5.35-1.38-4.63,3.93,2.48,10.34h4.65Zm33.18,6.78-12.14-6.33L329.44,94,326.59,95l2.49,7.13,2.14,9.28,5.35,2.13,1.07-1.38-3.21-5.35,9.28,3.56ZM240,233.28l-1.39,1.38,10.7,3.21,4.28,5,6.79.72,2.48-3.93-8.19-1.38Zm31.8,6.77-7.5,2.15,1.08,2.85h9.26l1.79-2.85-3.21.36Z" transform="translate(-3.6 -13.37)"/><g class="cls-15"><path class="cls-16" d="M247.84,238a150.29,150.29,0,0,1-144-107.22,150.25,150.25,0,1,0,288,0A150.3,150.3,0,0,1,247.84,238Z" transform="translate(-3.6 -13.37)"/></g><path class="cls-7" d="M242.43,104.25l14.27,6.42,3.91,6.42,6.43,2.5.71,6.77-2.49,3.93-5,1.06-10.7-4.28v-1.39l6.05-2.48-2.14-7.5-9.68-3.56-4.27-5.7ZM332.3,269l-11.41-4.63-13.95-5H295.88l-10.3-2.14-11.42,2.5-6.41.34h-3.93l-7.48,4.29-7.13,2.85-9.68-6.06,2.49-10-6.06-2.5h-7.13l-1.07-3.21.71-6.42L226,235.48l-5,.7-1.39,3.57-6,.36-5.35-6.39L206,225.14l5.35-10,10.35.71,2.84,2.5h4.29l5.35-3.21,4.63,1.39,6.42,11.06,2.5-.35L247,219l-2.13-4.27.71-6.78,13.19-5.71,1.78-13.19,5.71-4.63,4.63-8.2,3.57-.72,8.2-5.35.36-2.85-5.71.36-1.07-2.86h-3.88l-6.06,1.38,2.85-4.63L281.61,158l2.85-3.2,5,7.84,3.22,3.22,5-1.39-2.15-4.63L288,154.51l-8.56-9.68-8.92-6.07L262,137.38l-4.27-4.27L252,131.73l-.7,1.38-.72,10.34L252,147l-3.1,11.43-7.13-5.71,1.08-5-7.5-3.57-3.2-3.91,1.78-8.92,10.34-7.49.72-8.56-3.93.36-2.5-3.21-1.06-5.35-2.51-.36-1.38,5.71-3.91.72-1.78-12.44L225,99l-5-2.15-5.72,2.81,7.12,6.79,1.38,6L210,102.78l-8.92-9.68-.7-9.68-9.28-2.85-7.19,4.78a53.71,53.71,0,0,1-5.35,2.85A58.73,58.73,0,0,1,170,89.59l-1.38,6.06-8.2.36.72,3.92,13.19,2.14,6.77,7.49V122l-3.92,11.06.72,11.76-10,17.48-2.14,26,3.21,15,4.63,11.4,5.35.72-1.78-5.71-2.85-4.28-1.78-7.84,3.2-.72,5,12.84,3.58,11.55v9.28l6.77,8.19,12.17,8.8,18.54,5,5.71,5.35,4.27,5.7,6.42,3.92,7.85,2.15,7.84-.36s-.36,3.56-.36,5.35-5,7.84-5,7.84l-3.91,7.13,2.84,7.84,7.84,3.22,11.06,11.41,5,2.14v5.34l.62,2.5a149.67,149.67,0,0,0,74.78-35.22l.2-2.58,9.67-17.48-4.63-3.2Zm37.1-140.84-3.93-6.78-5-7.85-1.38-10.69,6.41,1.07.36-3.57-4.65-.36,3.93-1.79,4.29-2.48V92.13l-4.29-5.71-.91-7.67A150.39,150.39,0,0,0,187.85,36l8.22,5.82-5,6.43-6.77,1.38-.72,9.68-2.85,1.06-3.57,3.93.36,6.42,6.06.72-2.46,6h6.05L197.52,64.3l1.08-5.7,10-.72,2.49-4.28,10.35-1.07,1.07-6.05,7.48-.36s5.35-2.85,6.43-2.85A42.48,42.48,0,0,1,242.46,45l5.35,4.28h7.48l6.43-3.92,8.2.72a8.87,8.87,0,0,0,3.92,1.38c1.79,0,7.12-2.5,7.12-2.5l10.35,6.43,4.28,3.2V60l5.35.71,1.79-3.21,4.63,2.14L307,62.47l-10.7,2.86,6.07,7.84,12.83,7.14,5.35,7.13,7.85.71,1.78-3.57,2.85-.71-9.27-7.13L318,76.1l4.64-1.38-4.29-6,6.07-.36,7.84,4.27L334,81.14,338,85.78l3.21,10.34,7.84,5.7v11.77l8.21,5.35-.36,3.92-1.08,4.64,2.14,6.41.72,3.22,6.06,1.07,2.86-6.07ZM374,92.2v2l-1.79,5.7,1.07,5,3.92,1.38v6.78L373,111.31l-1,19.32-4.28,7.86,2.85,10,4.63,4.27V172l4.64,15,5,11.42,8.2,2.13,2.85-7.14,1.16-.9a151.35,151.35,0,0,0,1.16-18.68A149.41,149.41,0,0,0,374,92.23Zm-82.39-2.27L268.13,79.59,257.79,80l-2.5,6.77L251,82.09l-7.84,1.78-.72,11.77,6.41,4.63,4.64-6.77,5.35,5.35,11.06,9.68,2.14,10.34,9.26,11.76,15-2.48L296,122.8l-3.21-6.07L292,102.47l3.57-6.07Zm19.26,7.85-5.35-1.38-4.63,3.93,2.48,10.34h4.65Zm33.18,6.78-12.14-6.33L329.44,94,326.59,95l2.49,7.13,2.14,9.28,5.35,2.13,1.07-1.38-3.21-5.35,9.28,3.56ZM240,233.28l-1.39,1.38,10.7,3.21,4.28,5,6.79.72,2.48-3.93-8.19-1.38Zm31.8,6.77-7.5,2.15,1.08,2.85h9.26l1.79-2.85-3.21.36Z" transform="translate(-3.6 -13.37)"/></g><circle class="cls-17" cx="247.84" cy="173.81" r="150.25" transform="translate(-53.91 212.78) rotate(-45)"/><circle class="cls-18" cx="430.04" cy="84.28" r="15.04"/><path class="cls-2" d="M438.62,96.64h-9.81a3.45,3.45,0,0,0-3.46,3.45v8.24a13.48,13.48,0,0,0,16.73-.12v-8.1a3.45,3.45,0,0,0-3.44-3.47Z" transform="translate(-3.6 -13.37)"/><path class="cls-2" d="M433.55,95.12a5,5,0,1,0-5-5h0A5,5,0,0,0,433.55,95.12Z" transform="translate(-3.6 -13.37)"/><circle class="cls-10" cx="324.03" cy="23.91" r="15.04"/><path class="cls-2" d="M332.6,36.26h-9.8a3.47,3.47,0,0,0-3.41,3.47V48a13.48,13.48,0,0,0,16.74-.12V39.73a3.47,3.47,0,0,0-3.47-3.47Z" transform="translate(-3.6 -13.37)"/><circle class="cls-2" cx="323.93" cy="16.38" r="4.99"/><circle class="cls-18" cx="55.49" cy="128.77" r="15.04" transform="translate(-23.58 -2.78) rotate(-9.25)"/><path class="cls-2" d="M60.48,127.75H50.66a3.44,3.44,0,0,0-3.45,3.45v8.24a13.49,13.49,0,0,0,16.73-.12v-8.1a3.46,3.46,0,0,0-3.45-3.47Z" transform="translate(-3.6 -13.37)"/><path class="cls-2" d="M55.41,126.22a5,5,0,1,0-5-5,5,5,0,0,0,5,5Z" transform="translate(-3.6 -13.37)"/><circle class="cls-18" cx="65.18" cy="223.47" r="15.04" transform="translate(-38.67 0.01) rotate(-9.25)"/><path class="cls-2" d="M70.16,222.45H60.34a3.45,3.45,0,0,0-3.45,3.46h0v8.23A13.49,13.49,0,0,0,73.62,234v-8.11a3.47,3.47,0,0,0-3.45-3.47Z" transform="translate(-3.6 -13.37)"/><path class="cls-2" d="M65.08,220.93a5,5,0,1,0-5-5,5,5,0,0,0,5,5Z" transform="translate(-3.6 -13.37)"/><circle class="cls-19" cx="122.91" cy="134.05" r="15.04"/><path class="cls-2" d="M131.5,146.41h-9.83a3.46,3.46,0,0,0-3.45,3.46v8.29A13.49,13.49,0,0,0,135,158v-8.1a3.46,3.46,0,0,0-3.39-3.53Z" transform="translate(-3.6 -13.37)"/><path class="cls-2" d="M126.43,144.89a5,5,0,1,0-5-5,5,5,0,0,0,5,5Z" transform="translate(-3.6 -13.37)"/><circle class="cls-10" cx="222.14" cy="281.64" r="15.04"/><path class="cls-2" d="M230.73,294h-9.8a3.47,3.47,0,0,0-3.47,3.47h0v8.23a13.51,13.51,0,0,0,16.74-.12v-8.11a3.47,3.47,0,0,0-3.47-3.47Z" transform="translate(-3.6 -13.37)"/><circle class="cls-2" cx="222.06" cy="274.12" r="4.99"/><circle class="cls-10" cx="330.3" cy="310.57" r="15.04"/><path class="cls-2" d="M338.88,322.93h-9.82a3.47,3.47,0,0,0-3.47,3.45v8.3a13.51,13.51,0,0,0,16.75-.13v-8.19A3.46,3.46,0,0,0,338.88,322.93Z" transform="translate(-3.6 -13.37)"/><circle class="cls-2" cx="330.21" cy="303.05" r="4.99"/><circle class="cls-20" cx="406.35" cy="223.92" r="15.04"/><path class="cls-2" d="M414.94,236.28h-9.83a3.46,3.46,0,0,0-3.46,3.46V248a13.49,13.49,0,0,0,16.73-.12v-8.1a3.46,3.46,0,0,0-3.39-3.53Z" transform="translate(-3.6 -13.37)"/><path class="cls-2" d="M409.86,234.76a5,5,0,1,0-5-5h0A5,5,0,0,0,409.86,234.76Z" transform="translate(-3.6 -13.37)"/><path class="cls-21" d="M380,101.88c21.23,17.21,33.83,38.71,33.83,61.91,0,56.69-74.9,102.67-167.3,102.67s-167.29-46-167.29-102.67c0-24.8,14.34-47.55,38.2-65.3" transform="translate(-3.6 -13.37)"/><path class="cls-21" d="M150.71,59.17C165.77,34.49,186.93,18,212,14.37c58.93-8.49,117.15,57.34,130.07,147S317.7,330.67,258.79,339.16C232,343,205.28,331.49,183,309.31" transform="translate(-3.6 -13.37)"/><ellipse class="cls-22" cx="233.41" cy="189.07" rx="68.01" ry="168.22" transform="translate(-53.22 276.32) rotate(-58.58)"/><ellipse class="cls-22" cx="245.73" cy="181.54" rx="172.63" ry="68.01" transform="translate(-62.21 141.35) rotate(-31.42)"/><path class="cls-10" d="M316.72,78.87A2.77,2.77,0,1,0,314,81.64,2.77,2.77,0,0,0,316.72,78.87Z" transform="translate(-3.6 -13.37)"/><path class="cls-10" d="M347.14,192.06a2.77,2.77,0,1,0-2.77,2.77A2.77,2.77,0,0,0,347.14,192.06Z" transform="translate(-3.6 -13.37)"/><path class="cls-10" d="M341.05,249.57a2.77,2.77,0,1,0-2.76,2.76A2.77,2.77,0,0,0,341.05,249.57Z" transform="translate(-3.6 -13.37)"/><path class="cls-10" d="M323.41,293.37a2.77,2.77,0,1,0-2.77,2.76A2.77,2.77,0,0,0,323.41,293.37Z" transform="translate(-3.6 -13.37)"/><path class="cls-10" d="M376.07,231a2.77,2.77,0,1,0-2.76,2.76A2.76,2.76,0,0,0,376.07,231Z" transform="translate(-3.6 -13.37)"/><path class="cls-10" d="M234,265.69a2.77,2.77,0,1,0-2.77,2.76A2.77,2.77,0,0,0,234,265.69Z" transform="translate(-3.6 -13.37)"/><path class="cls-10" d="M108,219.76a2.77,2.77,0,1,0-2.77,2.76A2.77,2.77,0,0,0,108,219.76Z" transform="translate(-3.6 -13.37)"/><path class="cls-10" d="M129.32,191.15a2.77,2.77,0,1,0-2.76,2.77A2.76,2.76,0,0,0,129.32,191.15Z" transform="translate(-3.6 -13.37)"/><path class="cls-10" d="M234.27,111.15a2.77,2.77,0,1,0-2.76,2.77A2.76,2.76,0,0,0,234.27,111.15Z" transform="translate(-3.6 -13.37)"/><path class="cls-10" d="M398.54,118.15a2.77,2.77,0,1,0-2.76,2.76A2.77,2.77,0,0,0,398.54,118.15Z" transform="translate(-3.6 -13.37)"/><path class="cls-10" d="M90.69,131.53a2.77,2.77,0,1,0-2.76,2.77A2.77,2.77,0,0,0,90.69,131.53Z" transform="translate(-3.6 -13.37)"/><line class="cls-21" x1="394.91" y1="103.69" x2="416.65" y2="91.99"/><line class="cls-21" x1="81.61" y1="118.16" x2="66.93" y2="115.4"/><line class="cls-21" x1="122.98" y1="175.04" x2="122.98" y2="149.09"/><line class="cls-21" x1="98.95" y1="206.39" x2="76.61" y2="210.11"/><line class="cls-21" x1="227.01" y1="255.01" x2="224.96" y2="267.04"/><line class="cls-21" x1="318.11" y1="282.64" x2="324.51" y2="296.58"/><line class="cls-21" x1="372.43" y1="217.64" x2="391.01" y2="221.62"/><line class="cls-21" x1="332.5" y1="234.19" x2="314.46" y2="216.83"/><line class="cls-21" x1="311.49" y1="63.04" x2="319.71" y2="38.58"/><line class="cls-21" x1="136.57" y1="50.22" x2="140.06" y2="52.84"/><line class="cls-21" x1="163.15" y1="295.44" x2="167.06" y2="290.22"/><circle class="cls-23" cx="303.35" cy="206.63" r="15.04"/><path class="cls-2" d="M311.93,219h-9.81a3.45,3.45,0,0,0-3.46,3.45v8.3a13.48,13.48,0,0,0,16.73-.13v-8.1A3.45,3.45,0,0,0,312,219Z" transform="translate(-3.6 -13.37)"/><path class="cls-2" d="M306.86,217.48a5,5,0,1,0-5-5h0A5,5,0,0,0,306.86,217.48Z" transform="translate(-3.6 -13.37)"/><circle class="cls-24" cx="337.23" cy="135.45" r="15.04"/><path class="cls-2" d="M345.81,147.79H336a3.46,3.46,0,0,0-3.46,3.46v8.29a13.46,13.46,0,0,0,16.73-.12v-8.1a3.46,3.46,0,0,0-3.39-3.53Z" transform="translate(-3.6 -13.37)"/><path class="cls-2" d="M340.73,146.27a5,5,0,1,0-5-5h0A5,5,0,0,0,340.73,146.27Z" transform="translate(-3.6 -13.37)"/></g></svg>